<?xml version="1.0" encoding="utf-8"?>
<!-- Generator: Adobe Illustrator 27.9.0, SVG Export Plug-In . SVG Version: 6.00 Build 0)  -->
<svg version="1.1" id="圖層_1" xmlns="http://www.w3.org/2000/svg" xmlns:xlink="http://www.w3.org/1999/xlink" x="0px" y="0px"
	 viewBox="0 0 106.4 22.9" style="enable-background:new 0 0 106.4 22.9;" xml:space="preserve">
<g>
	<path d="M0,17.1l5.5-15H0.4V0.2h7.9v1.1L2.5,17.1h5.9V19H0V17.1z"/>
	<path d="M10.2,0.2h2.6v8.1h4.8V0.2h2.6V19h-2.6v-8.8h-4.8V19h-2.6V0.2z"/>
	<path d="M23,13V6c0-3.7,1.3-6,5.2-6c3.8,0,5.1,2.3,5.1,6v7.2c0,3.7-1.3,6.1-5.1,6.1C24.3,19.2,23,16.8,23,13z M30.5,13.6V5.4
		c0-2.1-0.4-3.4-2.5-3.4s-2.6,1.3-2.6,3.4v8.2c0,2.1,0.4,3.5,2.6,3.5C30.2,17.1,30.5,15.7,30.5,13.6z"/>
	<path d="M35.6,12.7V0.2h2.6v12.6c0,2.5,0.3,4.3,2.6,4.3c2.2,0,2.6-1.9,2.6-4.3V0.2h2.5v12.5c0,4-0.9,6.5-5,6.5
		C36.5,19.2,35.6,16.5,35.6,12.7z"/>
	<path d="M48,11.1h5.2V13H48V11.1z"/>
	<path d="M61.1,19.2c-0.1,0-0.3,0-0.5,0c-3.9,0-5.2-2.4-5.2-6.1V6c0-3.7,1.3-6,5.2-6c3.8,0,5.2,2.3,5.2,6v7.2c0,2.7-0.8,4.8-2.7,5.7
		c0.6,0.8,1.3,1.6,1.9,2l-0.4,2.1C63.2,22.1,61.9,20.4,61.1,19.2z M63.2,13.6V5.4c0-2.1-0.4-3.4-2.6-3.4C58.4,2,58,3.3,58,5.4v8.2
		c0,2.1,0.4,3.5,2.6,3.5S63.2,15.7,63.2,13.6z"/>
	<path d="M68.5,0.2h2.6V19h-2.6V0.2z"/>
	<path d="M78.8,0.2H81l2,13.5l2.6-13.4h1.9L90,13.8l2-13.6h2.2l-3,18.8h-1.9L86.5,5l-2.6,13.9h-2L78.8,0.2z"/>
	<path d="M96.2,12.7V0.2h2.6v12.6c0,2.5,0.3,4.3,2.6,4.3c2.2,0,2.6-1.9,2.6-4.3V0.2h2.5v12.5c0,4-0.9,6.5-5,6.5
		C97.1,19.2,96.2,16.5,96.2,12.7z"/>
</g>
</svg>
